<svg width="80" height="81" viewBox="0 0 80 81" fill="none" xmlns="http://www.w3.org/2000/svg">
<path opacity="0.4" d="M57.5 17.5156H62.5C63.8261 17.5156 65.0978 18.0424 66.0355 18.9801C66.9732 19.9178 67.5 21.1895 67.5 22.5156V47.5156C67.5 48.8417 66.9732 50.1135 66.0355 51.0512C65.0978 51.9888 63.8261 52.5156 62.5 52.5156H55" stroke="#198CFF" stroke-width="2" stroke-linecap="round" stroke-linejoin="round"/>
<path opacity="0.4" d="M25 52.5156H17.5C16.1739 52.5156 14.9021 51.9888 13.9645 51.0512C13.0268 50.1135 12.5 48.8417 12.5 47.5156V22.5156C12.5 21.1895 13.0268 19.9178 13.9645 18.9801C14.9021 18.0424 16.1739 17.5156 17.5 17.5156H22.5" stroke="#198CFF" stroke-width="2" stroke-linecap="round" stroke-linejoin="round"/>
<path opacity="0.4" d="M61.903 52.5156C63.7599 52.5157 65.58 53.0327 67.1596 54.0089C68.7392 54.985 70.0158 56.3816 70.8464 58.0423L76.9664 70.279C77.3477 71.0414 77.5278 71.8886 77.4895 72.7402C77.4512 73.5918 77.1958 74.4195 76.7476 75.1446C76.2994 75.8697 75.6732 76.4682 74.9285 76.8832C74.1839 77.2982 73.3455 77.5159 72.493 77.5156H7.50638C6.65391 77.5159 5.81554 77.2982 5.0709 76.8832C4.32625 76.4682 3.70008 75.8697 3.25185 75.1446C2.80362 74.4195 2.54823 73.5918 2.50993 72.7402C2.47164 71.8886 2.65171 71.0414 3.03305 70.279L9.15305 58.0423C9.98367 56.3816 11.2603 54.985 12.8398 54.0089C14.4194 53.0327 16.2395 52.5157 18.0964 52.5156" stroke="#198CFF" stroke-width="2" stroke-linecap="round" stroke-linejoin="round"/>
<path d="M47.5 13.2023C47.5 7.29896 40 2.51562 40 2.51562C40 2.51562 32.5 7.29896 32.5 13.2023V38.139H47.5V13.2023Z" stroke="#198CFF" stroke-width="2" stroke-linecap="round" stroke-linejoin="round"/>
<path d="M32.4998 38.139H23.3731C23.0964 38.1439 22.8217 38.0913 22.5664 37.9846C22.3111 37.8779 22.0807 37.7193 21.8898 37.519C21.7186 37.3367 21.5978 37.113 21.5394 36.8698C21.4809 36.6267 21.4868 36.3725 21.5565 36.1323C22.4482 33.6581 23.9 31.4235 25.7984 29.6032C27.6968 27.7829 29.9903 26.4262 32.4998 25.639" stroke="#198CFF" stroke-width="2" stroke-linecap="round" stroke-linejoin="round"/>
<path d="M47.5 38.139H56.6267C56.9028 38.1434 57.1769 38.0906 57.4316 37.9839C57.6863 37.8772 57.9161 37.7189 58.1067 37.519C58.2784 37.3371 58.3996 37.1133 58.458 36.8701C58.5165 36.6268 58.5103 36.3724 58.44 36.1323C57.5461 33.6598 56.094 31.4268 54.1966 29.6069C52.2992 27.7869 50.0076 26.4291 47.5 25.639" stroke="#198CFF" stroke-width="2" stroke-linecap="round" stroke-linejoin="round"/>
<path d="M35 47.5156V55.0156" stroke="#198CFF" stroke-width="2" stroke-linecap="round" stroke-linejoin="round"/>
<path d="M45 47.5156V62.5156" stroke="#198CFF" stroke-width="2" stroke-linecap="round" stroke-linejoin="round"/>
</svg>
