<svg width="92" height="92" viewBox="0 0 92 92" fill="none" xmlns="http://www.w3.org/2000/svg">
<circle opacity="0.8" cx="46" cy="46" r="32" stroke="#198CFF" stroke-width="2"/>
<circle opacity="0.2" cx="46" cy="46" r="45" stroke="#198CFF" stroke-width="2"/>
<g clip-path="url(#clip0)">
<path d="M58.7025 46.2768C58.7179 45.3845 58.6256 44.4922 58.4307 43.6255H46.2461V48.4409H53.3999C53.1281 50.1486 52.1692 51.6665 50.7487 52.6512L50.723 52.8101L54.5743 55.7947L54.841 55.8204C57.2871 53.5588 58.7025 50.2306 58.7025 46.2768Z" fill="#198CFF"/>
<path d="M46.246 58.9639C49.7486 58.9639 52.6921 57.81 54.8409 55.8203L50.7486 52.6459C49.4204 53.5382 47.846 53.9895 46.2511 53.9434C42.887 53.9229 39.9127 51.7485 38.8665 48.5485L38.7127 48.5639L34.7075 51.6613L34.6562 51.8049C36.8511 56.1998 41.3383 58.969 46.246 58.9639Z" fill="#198CFF"/>
<path d="M38.8617 48.5536C38.5797 47.728 38.4309 46.8613 38.4309 45.9844C38.4361 45.1126 38.5797 44.2459 38.8515 43.4152L38.8463 43.2459L34.7899 40.0972L34.6566 40.1588C32.8104 43.8254 32.8104 48.1434 34.6566 51.81L38.8617 48.5536Z" fill="#198CFF"/>
<path d="M46.246 38.0307C48.1075 37.9999 49.9024 38.6922 51.2614 39.964L54.9229 36.3896C52.5742 34.1845 49.4614 32.9794 46.2409 33.0153C41.3332 33.0153 36.846 35.7794 34.646 40.1691L38.8409 43.4255C39.8973 40.2255 42.8768 38.0512 46.246 38.0307Z" fill="#198CFF"/>
</g>
<defs>
<clipPath id="clip0">
<rect width="25.4872" height="26" fill="white" transform="translate(33.2563 33)"/>
</clipPath>
</defs>
</svg>
