<svg width="24" height="25" viewBox="0 0 24 25" fill="none" xmlns="http://www.w3.org/2000/svg">
<g clip-path="url(#clip0)">
<path d="M20.447 20.7049H16.893V15.1359C16.893 13.8079 16.866 12.0989 15.041 12.0989C13.188 12.0989 12.905 13.5439 12.905 15.0379V20.7049H9.351V9.25293H12.765V10.8139H12.811C13.288 9.91393 14.448 8.96393 16.181 8.96393C19.782 8.96393 20.448 11.3339 20.448 14.4189V20.7049H20.447ZM5.337 7.68593C4.193 7.68593 3.274 6.75993 3.274 5.62093C3.274 4.48293 4.194 3.55793 5.337 3.55793C6.477 3.55793 7.401 4.48293 7.401 5.62093C7.401 6.75993 6.476 7.68593 5.337 7.68593ZM7.119 20.7049H3.555V9.25293H7.119V20.7049ZM22.225 0.25293H1.771C0.792 0.25293 0 1.02693 0 1.98193V22.5239C0 23.4799 0.792 24.2529 1.771 24.2529H22.222C23.2 24.2529 24 23.4799 24 22.5239V1.98193C24 1.02693 23.2 0.25293 22.222 0.25293H22.225Z" fill="#BDBAD1"/>
</g>
<defs>
<clipPath id="clip0">
<rect width="24" height="24" fill="white" transform="translate(0 0.25293)"/>
</clipPath>
</defs>
</svg>
