<svg width="20" height="21" viewBox="0 0 20 21" fill="none" xmlns="http://www.w3.org/2000/svg">
<g clip-path="url(#clip0)">
<path d="M20 4.05168C19.2563 4.37793 18.4637 4.59418 17.6375 4.69918C18.4875 4.19168 19.1363 3.39418 19.4412 2.43293C18.6488 2.90543 17.7738 3.23918 16.8412 3.42543C16.0887 2.62418 15.0162 2.12793 13.8462 2.12793C11.5763 2.12793 9.74875 3.97043 9.74875 6.22918C9.74875 6.55418 9.77625 6.86668 9.84375 7.16418C6.435 6.99793 3.41875 5.36418 1.3925 2.87543C1.03875 3.48918 0.83125 4.19168 0.83125 4.94793C0.83125 6.36793 1.5625 7.62668 2.6525 8.35543C1.99375 8.34293 1.3475 8.15168 0.8 7.85043C0.8 7.86293 0.8 7.87918 0.8 7.89543C0.8 9.88793 2.22125 11.5429 4.085 11.9242C3.75125 12.0154 3.3875 12.0592 3.01 12.0592C2.7475 12.0592 2.4825 12.0442 2.23375 11.9892C2.765 13.6129 4.2725 14.8067 6.065 14.8454C4.67 15.9367 2.89875 16.5942 0.98125 16.5942C0.645 16.5942 0.3225 16.5792 0 16.5379C1.81625 17.7092 3.96875 18.3779 6.29 18.3779C13.835 18.3779 17.96 12.1279 17.96 6.71043C17.96 6.52918 17.9538 6.35418 17.945 6.18043C18.7588 5.60293 19.4425 4.88168 20 4.05168Z" fill="#BDBAD1"/>
</g>
<defs>
<clipPath id="clip0">
<rect width="20" height="20" fill="white" transform="translate(0 0.25293)"/>
</clipPath>
</defs>
</svg>
